<?xml version="1.0" encoding="UTF-8" standalone="no"?>
<svg xmlns:ffdec="https://www.free-decompiler.com/flash" xmlns:xlink="http://www.w3.org/1999/xlink" ffdec:objectType="frame" height="42.8px" width="42.8px" xmlns="http://www.w3.org/2000/svg">
  <g transform="matrix(1.0, 0.0, 0.0, 1.0, 21.4, 21.4)">
    <use ffdec:characterId="312" height="42.8" transform="matrix(1.0, 0.0, 0.0, 1.0, 0.0, 0.0)" width="42.8" xlink:href="#shape0"/>
  </g>
  <defs>
    <g id="shape0">
      <path d="M7.95 -7.9 Q4.65 -11.2 0.0 -11.15 -4.6 -11.2 -7.8 -7.9 L-7.85 -7.9 Q-11.15 -4.65 -11.15 0.0 -11.15 4.6 -7.85 7.85 -4.65 11.1 0.0 11.15 4.65 11.1 7.95 7.85 11.15 4.6 11.15 0.0 11.15 -4.65 7.95 -7.9 M15.25 -15.15 Q21.4 -8.9 21.4 0.0 21.4 8.8 15.25 15.1 8.9 21.35 0.0 21.4 -8.9 21.35 -15.05 15.1 -21.4 8.8 -21.4 0.0 -21.4 -8.9 -15.05 -15.15 L-15.0 -15.15 Q-8.85 -21.5 0.0 -21.4 8.9 -21.5 15.25 -15.15" fill="url(#gradient0)" fill-rule="evenodd" stroke="none"/>
    </g>
    <radialGradient cx="0" cy="0" gradientTransform="matrix(0.0264, 0.0, 0.0, 0.0264, 0.0, 0.0)" gradientUnits="userSpaceOnUse" id="gradient0" r="819.2" spreadMethod="pad">
      <stop offset="0.6509803921568628" stop-color="#33ccff"/>
      <stop offset="1.0" stop-color="#ffffff" stop-opacity="0.0"/>
    </radialGradient>
  </defs>
</svg>
