<?xml version="1.0" encoding="UTF-8" standalone="no"?>
<svg xmlns:ffdec="https://www.free-decompiler.com/flash" xmlns:xlink="http://www.w3.org/1999/xlink" ffdec:objectType="frame" height="60.0px" width="70.0px" xmlns="http://www.w3.org/2000/svg">
  <g transform="matrix(1.0, 0.0, 0.0, 1.0, 35.0, 30.0)">
    <use ffdec:characterId="30" height="60.0" transform="matrix(1.0, 0.0, 0.0, 1.0, 0.0, 0.0)" width="70.0" xlink:href="#morphshape0"/>
  </g>
  <defs>
    <g id="morphshape0">
      <path d="M-34.0 -0.05 Q-34.05 9.05 -24.1 15.55 -15.25 21.25 -3.1 21.95 L-0.55 22.0 -0.85 21.95 Q-4.45 21.25 -7.05 15.6 -10.0 9.1 -10.0 0.0 -10.0 -9.05 -7.05 -15.5 -4.45 -21.7 -0.85 -22.0 -14.45 -21.85 -24.1 -15.5 -34.05 -9.05 -34.0 0.0 M-5.55 15.95 Q-4.95 18.4 -2.65 20.15 4.6 21.25 10.85 17.3 15.75 12.6 16.0 6.0 16.3 -0.6 11.95 -5.3 9.65 -9.9 5.1 -11.75 17.95 -13.35 25.85 -11.25 33.95 -9.05 32.2 -4.2 30.45 0.65 19.85 5.35 10.1 9.45 -1.55 11.7 -4.45 13.5 -5.6 16.0" fill="#010101" fill-opacity="0.0" fill-rule="evenodd" stroke="none"/>
      <path d="M-22.05 -0.1 L-22.05 0.0 Q-22.05 9.0 -15.55 15.6 -9.9 21.15 -2.1 21.9 L-1.8 21.9 -0.9 21.95 0.2 21.95 0.4 21.95 2.0 21.85 2.45 21.85 Q10.0 21.1 15.55 15.6 L15.8 15.3 Q21.95 8.95 22.0 0.15 L22.0 -0.4 Q21.9 -9.15 15.7 -15.45 L15.4 -15.75 Q9.45 -21.6 1.25 -22.0 L-1.05 -22.0 Q-9.5 -21.65 -15.65 -15.45 -22.0 -9.05 -22.0 0.0" fill="url(#gradient0)" fill-rule="evenodd" stroke="none"/>
      <path d="M-34.0 0.0 Q-34.05 -9.05 -24.1 -15.5 -14.45 -21.85 -0.85 -22.0 -4.45 -21.7 -7.05 -15.5 -10.0 -9.05 -10.0 0.0 -10.0 9.1 -7.05 15.6 -4.45 21.25 -0.85 21.95 L-0.55 22.0 -3.1 21.95 Q-15.25 21.25 -24.1 15.55 -34.05 9.05 -34.0 -0.05 M-22.0 0.0 Q-22.0 -9.05 -15.65 -15.45 -9.5 -21.65 -1.05 -22.0 L1.25 -22.0 Q9.45 -21.6 15.4 -15.75 L15.7 -15.45 Q21.9 -9.15 22.0 -0.4 L22.0 0.15 Q21.95 8.95 15.8 15.3 L15.55 15.6 Q10.0 21.1 2.45 21.85 L2.0 21.85 0.4 21.95 0.2 21.95 -0.9 21.95 -1.8 21.9 -2.1 21.9 Q-9.9 21.15 -15.55 15.6 -22.05 9.0 -22.05 0.0 L-22.05 -0.1 M-5.6 16.0 Q-4.45 13.5 -1.55 11.7 10.1 9.45 19.85 5.35 30.45 0.65 32.2 -4.2 33.95 -9.05 25.85 -11.25 17.95 -13.35 5.1 -11.75 9.65 -9.9 11.95 -5.3 16.3 -0.6 16.0 6.0 15.75 12.6 10.85 17.3 4.6 21.25 -2.65 20.15 -4.95 18.4 -5.55 15.95" ffdec:has-small-stroke="true" ffdec:original-stroke-width="0.0" fill="none" stroke="#000000" stroke-linecap="round" stroke-linejoin="round" stroke-opacity="0.0" stroke-width="1.0"/>
    </g>
    <radialGradient cx="0" cy="0" gradientTransform="matrix(0.0246, 0.0, 0.0, 0.0246, 0.0, -0.05)" gradientUnits="userSpaceOnUse" id="gradient0" r="819.2" spreadMethod="pad">
      <stop offset="0.0" stop-color="#cccc00" stop-opacity="0.8"/>
      <stop offset="1.0" stop-color="#cc0000" stop-opacity="0.8"/>
    </radialGradient>
  </defs>
</svg>
