<?xml version="1.0" encoding="UTF-8" standalone="no"?>
<svg xmlns:ffdec="https://www.free-decompiler.com/flash" xmlns:xlink="http://www.w3.org/1999/xlink" ffdec:objectType="frame" height="60.0px" width="70.0px" xmlns="http://www.w3.org/2000/svg">
  <g transform="matrix(1.0, 0.0, 0.0, 1.0, 35.0, 30.0)">
    <use ffdec:characterId="30" height="60.0" transform="matrix(1.0, 0.0, 0.0, 1.0, 0.0, 0.0)" width="70.0" xlink:href="#morphshape0"/>
  </g>
  <defs>
    <g id="morphshape0">
      <path d="M-30.9 0.05 Q-30.9 11.6 -21.85 19.85 -13.8 27.1 -2.75 27.95 L-0.05 28.0 2.1 27.85 Q9.15 27.05 14.3 19.8 20.1 11.55 20.1 0.0 20.1 -11.55 14.3 -19.75 8.35 -27.95 -0.1 -28.0 -12.9 -27.95 -21.85 -19.75 -30.9 -11.55 -30.9 0.0 M-23.85 4.05 Q-23.7 13.95 -16.55 21.0 -8.9 27.1 0.7 26.8 3.0 25.65 4.1 24.0 5.3 22.25 5.3 21.05 12.7 19.25 17.35 13.0 27.1 5.95 29.1 -2.85 31.15 -11.55 24.2 -16.95 17.15 -22.4 5.1 -21.2 -6.7 -20.15 -16.2 -12.95 -23.5 -5.9 -23.8 4.0" fill="#010101" fill-opacity="0.0" fill-rule="evenodd" stroke="none"/>
      <path d="M-27.85 0.1 L-27.85 0.1 Q-27.85 11.55 -19.65 19.9 -12.5 27.05 -2.65 28.0 L-2.35 28.0 -1.15 28.0 0.2 28.05 0.5 28.05 2.45 27.95 2.95 27.9 Q12.6 27.05 19.7 20.1 L20.05 19.8 Q27.9 11.75 28.1 0.6 L28.1 -0.1 Q28.05 -11.35 20.3 -19.4 L19.9 -19.75 Q12.4 -27.3 2.0 -27.95 L-1.0 -28.0 Q-11.9 -27.6 -19.75 -19.7 -27.9 -11.5 -27.9 0.0" fill="url(#gradient0)" fill-rule="evenodd" stroke="none"/>
      <path d="M-30.9 0.0 Q-30.9 -11.55 -21.85 -19.75 -12.9 -27.95 -0.1 -28.0 8.35 -27.95 14.3 -19.75 20.1 -11.55 20.1 0.0 20.1 11.55 14.3 19.8 9.15 27.05 2.1 27.85 L-0.05 28.0 -2.75 27.95 Q-13.8 27.1 -21.85 19.85 -30.9 11.6 -30.9 0.05 M-27.9 0.0 Q-27.9 -11.5 -19.75 -19.7 -11.9 -27.6 -1.0 -28.0 L2.0 -27.95 Q12.4 -27.3 19.9 -19.75 L20.3 -19.4 Q28.05 -11.35 28.1 -0.1 L28.1 0.6 Q27.9 11.75 20.05 19.8 L19.7 20.1 Q12.6 27.05 2.95 27.9 L2.45 27.95 0.5 28.05 0.2 28.05 -1.15 28.0 -2.35 28.0 -2.65 28.0 Q-12.5 27.05 -19.65 19.9 -27.85 11.55 -27.85 0.1 L-27.85 0.1 M-23.8 4.0 Q-23.5 -5.9 -16.2 -12.95 -6.7 -20.15 5.1 -21.2 17.15 -22.4 24.2 -16.95 31.15 -11.55 29.1 -2.85 27.1 5.95 17.35 13.0 12.7 19.25 5.3 21.05 5.3 22.25 4.1 24.0 3.0 25.65 0.7 26.8 -8.9 27.1 -16.55 21.0 -23.7 13.95 -23.85 4.05" ffdec:has-small-stroke="true" ffdec:original-stroke-width="0.0" fill="none" stroke="#000000" stroke-linecap="round" stroke-linejoin="round" stroke-opacity="0.0" stroke-width="1.0"/>
    </g>
    <radialGradient cx="0" cy="0" gradientTransform="matrix(0.0246, 0.0, 0.0, 0.0246, 0.0, -0.05)" gradientUnits="userSpaceOnUse" id="gradient0" r="819.2" spreadMethod="pad">
      <stop offset="0.0" stop-color="#343401" stop-opacity="0.2"/>
      <stop offset="1.0" stop-color="#340101" stop-opacity="0.2"/>
    </radialGradient>
  </defs>
</svg>
