<?xml version="1.0" encoding="UTF-8" standalone="no"?>
<svg xmlns:ffdec="https://www.free-decompiler.com/flash" xmlns:xlink="http://www.w3.org/1999/xlink" ffdec:objectType="frame" height="6.5px" width="12.0px" xmlns="http://www.w3.org/2000/svg">
  <g transform="matrix(1.0, 0.0, 0.0, 1.0, 6.0, 3.25)">
    <use ffdec:characterId="271" height="6.5" transform="matrix(1.0, 0.0, 0.0, 1.0, 0.0, 0.0)" width="12.0" xlink:href="#shape0"/>
  </g>
  <defs>
    <g id="shape0">
      <path d="M2.25 -1.75 L1.95 -1.35 1.55 -0.9 1.6 -0.9 1.7 -0.9 1.75 -0.9 1.9 -0.95 2.35 -1.25 2.45 -1.4 2.45 -1.45 2.6 -1.65 2.6 -2.05 2.6 -2.25 2.45 -2.05 2.25 -1.75 M1.6 -1.25 L1.6 -1.3 2.5 -2.5 0.5 -2.4 0.5 -1.8 0.5 -1.7 Q0.55 -1.45 0.9 -1.15 L1.35 -0.9 1.6 -1.25 M0.15 -1.7 L0.3 -1.7 0.3 -2.4 -1.35 -2.35 -1.55 -2.55 -1.35 -2.75 3.95 -3.25 4.2 -3.05 4.25 -2.95 4.3 -2.75 4.25 -2.6 3.95 -2.5 2.8 -2.5 2.8 -1.95 4.95 -1.55 5.0 -0.85 5.15 -0.85 5.35 -0.85 5.35 -2.35 5.35 -2.45 5.45 -2.65 5.6 -2.45 5.6 -0.6 5.85 -0.4 6.0 -0.2 6.0 -0.1 5.85 0.1 5.6 0.3 5.6 1.95 5.6 2.05 5.45 2.2 5.35 2.05 5.35 0.55 5.15 0.55 5.0 0.55 5.0 1.5 4.3 1.6 4.25 1.5 4.2 1.55 4.15 1.55 3.9 1.65 3.8 1.65 2.25 1.9 2.45 1.95 2.6 2.1 2.75 2.55 2.6 3.1 2.1 3.25 1.6 3.1 Q1.35 2.85 1.4 2.55 1.35 2.25 1.6 2.1 L1.45 1.9 -3.55 1.05 -4.45 0.8 0.85 1.15 0.6 0.9 -1.05 0.9 -1.2 0.65 -1.05 0.45 0.3 0.45 0.3 0.0 0.2 0.0 0.2 -0.35 -5.75 -0.35 -5.75 -0.9 Q-5.75 -2.6 -4.65 -2.6 -4.05 -2.65 -2.7 -1.35 L-1.9 -1.5 -1.5 -0.95 -0.9 -0.7 -0.7 -0.7 -0.6 -0.7 -0.1 -1.05 0.0 -1.15 0.15 -1.7 M2.6 0.45 L2.6 0.15 2.45 0.15 2.4 0.15 2.1 0.3 0.85 0.3 0.7 0.3 0.55 0.45 2.6 0.45 M4.25 -0.35 L3.8 -0.15 2.8 0.15 2.8 0.45 3.55 0.45 3.7 0.65 3.55 0.9 0.95 0.9 1.15 1.15 2.1 1.15 3.8 0.9 4.25 0.8 4.25 -0.35 M2.05 2.2 L1.85 2.3 1.8 2.35 1.75 2.55 1.85 2.85 2.1 2.95 2.35 2.85 2.35 2.8 2.4 2.75 2.45 2.55 2.35 2.3 2.1 2.2 2.05 2.2 M1.8 1.9 L1.8 1.95 1.85 1.9 1.8 1.9 M-5.75 0.0 L-5.95 -0.1 -6.0 -0.2 -5.95 -0.35 -5.75 -0.35 -4.05 -0.35 -4.0 -0.2 -4.05 -0.1 -5.75 0.0" fill="#000000" fill-rule="evenodd" stroke="none"/>
      <path d="M1.95 -1.35 L2.1 -1.55 2.25 -1.75 2.45 -2.05 2.6 -2.05 2.6 -1.65 2.45 -1.45 2.45 -1.4 2.35 -1.25 1.9 -0.95 1.75 -0.9 1.7 -0.9 1.6 -0.9 1.55 -0.9 1.95 -1.35 M0.5 -1.8 L0.9 -1.85 Q0.85 -1.6 1.15 -1.4 L1.6 -1.25 1.35 -0.9 0.9 -1.15 Q0.55 -1.45 0.5 -1.7 L0.5 -1.8 M0.15 -1.7 L0.0 -1.15 -0.1 -1.05 -0.6 -0.7 -0.7 -0.7 -0.9 -0.7 -1.5 -0.95 -1.9 -1.5 -1.85 -1.6 -1.5 -1.6 -1.25 -1.15 -0.9 -1.05 -0.75 -1.0 -0.35 -1.3 -0.2 -1.7 0.2 -1.75 0.15 -1.7 M-5.75 -0.35 L0.2 -0.35 0.2 0.0 0.3 0.0 0.3 0.45 -1.05 0.45 -1.2 0.65 -1.05 0.9 0.6 0.9 0.85 1.15 -4.45 0.8 -5.65 0.5 -5.75 0.35 -5.75 0.0 -4.05 -0.1 -4.0 -0.2 -4.05 -0.35 -5.75 -0.35 M4.2 1.55 L4.25 1.5 4.25 1.55 4.2 1.55 M4.25 -0.35 L4.25 0.8 3.8 0.9 2.1 1.15 1.15 1.15 0.95 0.9 3.55 0.9 3.7 0.65 3.55 0.45 2.8 0.45 2.8 0.15 3.8 -0.15 4.25 -0.35 M2.6 0.45 L0.55 0.45 0.7 0.3 0.85 0.3 2.1 0.3 2.4 0.15 2.45 0.15 2.6 0.15 2.6 0.45 M2.05 2.2 L2.1 2.2 2.35 2.3 2.45 2.55 2.4 2.75 2.35 2.8 2.35 2.85 2.1 2.95 1.85 2.85 1.75 2.55 1.8 2.35 1.85 2.3 2.05 2.2" fill="#ed1b1b" fill-rule="evenodd" stroke="none"/>
      <path d="M2.25 -1.75 L2.1 -1.55 1.95 -1.35 2.25 -1.75" fill="#ffffff" fill-opacity="0.4" fill-rule="evenodd" stroke="none"/>
    </g>
  </defs>
</svg>
