<svg xmlns="http://www.w3.org/2000/svg" width="100" height="84" viewBox="0 0 100 84"><defs><radialGradient id="sh" cx="0.5" cy="0.5" r="0.5"><stop offset="0.55" stop-color="#000" stop-opacity="0.32"/><stop offset="1" stop-color="#000" stop-opacity="0"/></radialGradient><radialGradient id="g" cx="0.4" cy="0.35" r="0.75"><stop offset="0" stop-color="#C6EF8E"/><stop offset="0.6" stop-color="#8FD43C"/><stop offset="1" stop-color="#69AE20"/></radialGradient><linearGradient id="s" x1="0" y1="0" x2="0" y2="1"><stop offset="0" stop-color="#C6EF8E"/><stop offset="0.5" stop-color="#8FD43C"/><stop offset="1" stop-color="#8FD43C"/></linearGradient></defs>
<ellipse cx="50" cy="46" rx="52" ry="42" fill="url(#sh)"/>
<ellipse cx="24" cy="72" rx="10" ry="8" fill="#8FD43C" stroke="#3F7210" stroke-width="3"/><ellipse cx="24" cy="73" rx="5" ry="4" fill="#FF9EB5"/><ellipse cx="76" cy="72" rx="10" ry="8" fill="#8FD43C" stroke="#3F7210" stroke-width="3"/><ellipse cx="76" cy="73" rx="5" ry="4" fill="#FF9EB5"/>
<ellipse cx="50" cy="62" rx="33" ry="21" fill="url(#g)" stroke="#3F7210" stroke-width="3"/>
<rect x="6" y="4" width="88" height="52" rx="28" fill="url(#s)" stroke="#3F7210" stroke-width="3"/>
<ellipse cx="50" cy="13" rx="30" ry="5" fill="#fff" opacity="0.3"/>
<ellipse cx="36" cy="20" rx="10" ry="7.5" fill="#C6EF8E" opacity="0.7"/><ellipse cx="64" cy="20" rx="10" ry="7.5" fill="#C6EF8E" opacity="0.7"/>
<ellipse cx="36" cy="20" rx="5.5" ry="4" fill="#3F7210"/><ellipse cx="64" cy="20" rx="5.5" ry="4" fill="#3F7210"/>
<rect x="24" y="1" width="9" height="11" rx="3.5" fill="#FFFDF5" stroke="#3F7210" stroke-width="2"/><rect x="67" y="1" width="9" height="11" rx="3.5" fill="#FFFDF5" stroke="#3F7210" stroke-width="2"/>
<ellipse cx="15" cy="38" rx="7" ry="5" fill="#FF7FA6" opacity="0.5"/><ellipse cx="85" cy="38" rx="7" ry="5" fill="#FF7FA6" opacity="0.5"/>

<ellipse cx="33" cy="54" rx="11" ry="10" fill="#8FD43C" stroke="#3F7210" stroke-width="3"/>
<ellipse cx="33" cy="53" rx="7.6" ry="7.1" fill="#fff"/>
<circle cx="33" cy="50" r="4.3" fill="#1B1530"/><circle cx="31.4" cy="48.4" r="1.6" fill="#fff"/>
<ellipse cx="67" cy="54" rx="11" ry="10" fill="#8FD43C" stroke="#3F7210" stroke-width="3"/>
<ellipse cx="67" cy="53" rx="7.6" ry="7.1" fill="#fff"/>
<circle cx="67" cy="50" r="4.3" fill="#1B1530"/><circle cx="65.4" cy="48.4" r="1.6" fill="#fff"/>
</svg>